<?xml version="1.0" encoding="us-ascii" standalone="no"?><svg xmlns="http://www.w3.org/2000/svg" xmlns:xlink="http://www.w3.org/1999/xlink" contentStyleType="text/css" height="1242px" preserveAspectRatio="none" style="width:1361px;height:1242px;background:#FFFFFF;" version="1.1" viewBox="0 0 1361 1242" width="1361px" zoomAndPan="magnify"><defs/><g><!--cluster CAL--><g id="cluster_CAL"><path d="M8.5,6 L218.5,6 A3.75,3.75 0 0 1 221,8.5 L228,49.6094 L1351.5,49.6094 A2.5,2.5 0 0 1 1354,52.1094 L1354,1033.5 A2.5,2.5 0 0 1 1351.5,1036 L8.5,1036 A2.5,2.5 0 0 1 6,1033.5 L6,8.5 A2.5,2.5 0 0 1 8.5,6 " fill="none" style="stroke:#000000;stroke-width:1.5;"/><line style="stroke:#000000;stroke-width:1.5;" x1="6" x2="228" y1="49.6094" y2="49.6094"/><text fill="#000000" font-family="sans-serif" font-size="14" font-weight="bold" lengthAdjust="spacing" textLength="189" x="20" y="32.5332">esscher_method.calibrator</text></g><!--cluster MOD--><g id="cluster_MOD"><path d="M922.5,1060 L1108.5,1060 A3.75,3.75 0 0 1 1111,1062.5 L1118,1103.6094 L1269.5,1103.6094 A2.5,2.5 0 0 1 1272,1106.1094 L1272,1193.5 A2.5,2.5 0 0 1 1269.5,1196 L922.5,1196 A2.5,2.5 0 0 1 920,1193.5 L920,1062.5 A2.5,2.5 0 0 1 922.5,1060 " fill="none" style="stroke:#000000;stroke-width:1.5;"/><line style="stroke:#000000;stroke-width:1.5;" x1="920" x2="1118" y1="1103.6094" y2="1103.6094"/><text fill="#000000" font-family="sans-serif" font-size="14" font-weight="bold" lengthAdjust="spacing" textLength="165" x="934" y="1086.5332">esscher_method.model</text></g><!--class Calibrator--><g id="elem_Calibrator"><rect codeLine="24" fill="#F1F1F1" height="63.6094" id="Calibrator" rx="2.5" ry="2.5" style="stroke:#181818;stroke-width:0.5;" width="320" x="715" y="62"/><ellipse cx="829.75" cy="85.8047" fill="#ADD1B2" rx="11" ry="11" style="stroke:#181818;stroke-width:1.0;"/><path d="M832.5156,81.6797 Q832.6719,81.4609 832.8594,81.3516 Q833.0469,81.2422 833.2656,81.2422 Q833.6406,81.2422 833.875,81.5078 Q834.1094,81.7578 834.1094,82.3672 L834.1094,83.8203 Q834.1094,84.4297 833.875,84.6953 Q833.6406,84.9609 833.2656,84.9609 Q832.9219,84.9609 832.7188,84.7578 Q832.5156,84.5703 832.4063,84.0547 Q832.3594,83.6953 832.1719,83.5078 Q831.8438,83.1328 831.2344,82.9141 Q830.625,82.6953 830,82.6953 Q829.2344,82.6953 828.5938,83.0234 Q827.9688,83.3516 827.4688,84.1016 Q826.9844,84.8516 826.9844,85.8828 L826.9844,86.9766 Q826.9844,88.2109 827.875,89.0391 Q828.7656,89.8516 830.3594,89.8516 Q831.2969,89.8516 831.9531,89.6016 Q832.3438,89.4453 832.7656,89.0078 Q833.0313,88.7422 833.1719,88.6641 Q833.3281,88.5859 833.5313,88.5859 Q833.8594,88.5859 834.1094,88.8516 Q834.375,89.1016 834.375,89.4453 Q834.375,89.7891 834.0313,90.1953 Q833.5313,90.7734 832.7344,91.1016 Q831.6563,91.5547 830.3594,91.5547 Q828.8438,91.5547 827.6406,90.9297 Q826.6563,90.4297 825.9688,89.3672 Q825.2813,88.2891 825.2813,87.0078 L825.2813,85.8516 Q825.2813,84.5234 825.8906,83.3828 Q826.5156,82.2266 827.6094,81.6172 Q828.7031,80.9922 829.9375,80.9922 Q830.6719,80.9922 831.3125,81.1641 Q831.9688,81.3203 832.5156,81.6797 Z " fill="#000000"/><text fill="#000000" font-family="sans-serif" font-size="14" lengthAdjust="spacing" textLength="62" x="860.25" y="91.5332">Calibrator</text><line style="stroke:#181818;stroke-width:0.5;" x1="716" x2="1034" y1="109.6094" y2="109.6094"/><line style="stroke:#181818;stroke-width:0.5;" x1="716" x2="1034" y1="117.6094" y2="117.6094"/></g><!--class CalibrationData--><g id="elem_CalibrationData"><rect codeLine="25" fill="#F1F1F1" height="63.6094" id="CalibrationData" rx="2.5" ry="2.5" style="stroke:#181818;stroke-width:0.5;" width="320" x="22" y="211"/><ellipse cx="118.75" cy="234.8047" fill="#ADD1B2" rx="11" ry="11" style="stroke:#181818;stroke-width:1.0;"/><path d="M121.5156,230.6797 Q121.6719,230.4609 121.8594,230.3516 Q122.0469,230.2422 122.2656,230.2422 Q122.6406,230.2422 122.875,230.5078 Q123.1094,230.7578 123.1094,231.3672 L123.1094,232.8203 Q123.1094,233.4297 122.875,233.6953 Q122.6406,233.9609 122.2656,233.9609 Q121.9219,233.9609 121.7188,233.7578 Q121.5156,233.5703 121.4063,233.0547 Q121.3594,232.6953 121.1719,232.5078 Q120.8438,232.1328 120.2344,231.9141 Q119.625,231.6953 119,231.6953 Q118.2344,231.6953 117.5938,232.0234 Q116.9688,232.3516 116.4688,233.1016 Q115.9844,233.8516 115.9844,234.8828 L115.9844,235.9766 Q115.9844,237.2109 116.875,238.0391 Q117.7656,238.8516 119.3594,238.8516 Q120.2969,238.8516 120.9531,238.6016 Q121.3438,238.4453 121.7656,238.0078 Q122.0313,237.7422 122.1719,237.6641 Q122.3281,237.5859 122.5313,237.5859 Q122.8594,237.5859 123.1094,237.8516 Q123.375,238.1016 123.375,238.4453 Q123.375,238.7891 123.0313,239.1953 Q122.5313,239.7734 121.7344,240.1016 Q120.6563,240.5547 119.3594,240.5547 Q117.8438,240.5547 116.6406,239.9297 Q115.6563,239.4297 114.9688,238.3672 Q114.2813,237.2891 114.2813,236.0078 L114.2813,234.8516 Q114.2813,233.5234 114.8906,232.3828 Q115.5156,231.2266 116.6094,230.6172 Q117.7031,229.9922 118.9375,229.9922 Q119.6719,229.9922 120.3125,230.1641 Q120.9688,230.3203 121.5156,230.6797 Z " fill="#000000"/><text fill="#000000" font-family="sans-serif" font-size="14" lengthAdjust="spacing" textLength="98" x="149.25" y="240.5332">CalibrationData</text><line style="stroke:#181818;stroke-width:0.5;" x1="23" x2="341" y1="258.6094" y2="258.6094"/><line style="stroke:#181818;stroke-width:0.5;" x1="23" x2="341" y1="266.6094" y2="266.6094"/></g><!--class CalibrationConfig--><g id="elem_CalibrationConfig"><rect codeLine="26" fill="#F1F1F1" height="63.6094" id="CalibrationConfig" rx="2.5" ry="2.5" style="stroke:#181818;stroke-width:0.5;" width="320" x="412" y="211"/><ellipse cx="503.25" cy="234.8047" fill="#ADD1B2" rx="11" ry="11" style="stroke:#181818;stroke-width:1.0;"/><path d="M506.0156,230.6797 Q506.1719,230.4609 506.3594,230.3516 Q506.5469,230.2422 506.7656,230.2422 Q507.1406,230.2422 507.375,230.5078 Q507.6094,230.7578 507.6094,231.3672 L507.6094,232.8203 Q507.6094,233.4297 507.375,233.6953 Q507.1406,233.9609 506.7656,233.9609 Q506.4219,233.9609 506.2188,233.7578 Q506.0156,233.5703 505.9063,233.0547 Q505.8594,232.6953 505.6719,232.5078 Q505.3438,232.1328 504.7344,231.9141 Q504.125,231.6953 503.5,231.6953 Q502.7344,231.6953 502.0938,232.0234 Q501.4688,232.3516 500.9688,233.1016 Q500.4844,233.8516 500.4844,234.8828 L500.4844,235.9766 Q500.4844,237.2109 501.375,238.0391 Q502.2656,238.8516 503.8594,238.8516 Q504.7969,238.8516 505.4531,238.6016 Q505.8438,238.4453 506.2656,238.0078 Q506.5313,237.7422 506.6719,237.6641 Q506.8281,237.5859 507.0313,237.5859 Q507.3594,237.5859 507.6094,237.8516 Q507.875,238.1016 507.875,238.4453 Q507.875,238.7891 507.5313,239.1953 Q507.0313,239.7734 506.2344,240.1016 Q505.1563,240.5547 503.8594,240.5547 Q502.3438,240.5547 501.1406,239.9297 Q500.1563,239.4297 499.4688,238.3672 Q498.7813,237.2891 498.7813,236.0078 L498.7813,234.8516 Q498.7813,233.5234 499.3906,232.3828 Q500.0156,231.2266 501.1094,230.6172 Q502.2031,229.9922 503.4375,229.9922 Q504.1719,229.9922 504.8125,230.1641 Q505.4688,230.3203 506.0156,230.6797 Z " fill="#000000"/><text fill="#000000" font-family="sans-serif" font-size="14" lengthAdjust="spacing" textLength="109" x="533.75" y="240.5332">CalibrationConfig</text><line style="stroke:#181818;stroke-width:0.5;" x1="413" x2="731" y1="258.6094" y2="258.6094"/><line style="stroke:#181818;stroke-width:0.5;" x1="413" x2="731" y1="266.6094" y2="266.6094"/></g><!--class MomentMatcher--><g id="elem_MomentMatcher"><rect codeLine="28" fill="#F1F1F1" height="63.6094" id="MomentMatcher" rx="2.5" ry="2.5" style="stroke:#181818;stroke-width:0.5;" width="320" x="1018" y="211"/><ellipse cx="1113.25" cy="234.8047" fill="#ADD1B2" rx="11" ry="11" style="stroke:#181818;stroke-width:1.0;"/><path d="M1116.0156,230.6797 Q1116.1719,230.4609 1116.3594,230.3516 Q1116.5469,230.2422 1116.7656,230.2422 Q1117.1406,230.2422 1117.375,230.5078 Q1117.6094,230.7578 1117.6094,231.3672 L1117.6094,232.8203 Q1117.6094,233.4297 1117.375,233.6953 Q1117.1406,233.9609 1116.7656,233.9609 Q1116.4219,233.9609 1116.2188,233.7578 Q1116.0156,233.5703 1115.9063,233.0547 Q1115.8594,232.6953 1115.6719,232.5078 Q1115.3438,232.1328 1114.7344,231.9141 Q1114.125,231.6953 1113.5,231.6953 Q1112.7344,231.6953 1112.0938,232.0234 Q1111.4688,232.3516 1110.9688,233.1016 Q1110.4844,233.8516 1110.4844,234.8828 L1110.4844,235.9766 Q1110.4844,237.2109 1111.375,238.0391 Q1112.2656,238.8516 1113.8594,238.8516 Q1114.7969,238.8516 1115.4531,238.6016 Q1115.8438,238.4453 1116.2656,238.0078 Q1116.5313,237.7422 1116.6719,237.6641 Q1116.8281,237.5859 1117.0313,237.5859 Q1117.3594,237.5859 1117.6094,237.8516 Q1117.875,238.1016 1117.875,238.4453 Q1117.875,238.7891 1117.5313,239.1953 Q1117.0313,239.7734 1116.2344,240.1016 Q1115.1563,240.5547 1113.8594,240.5547 Q1112.3438,240.5547 1111.1406,239.9297 Q1110.1563,239.4297 1109.4688,238.3672 Q1108.7813,237.2891 1108.7813,236.0078 L1108.7813,234.8516 Q1108.7813,233.5234 1109.3906,232.3828 Q1110.0156,231.2266 1111.1094,230.6172 Q1112.2031,229.9922 1113.4375,229.9922 Q1114.1719,229.9922 1114.8125,230.1641 Q1115.4688,230.3203 1116.0156,230.6797 Z " fill="#000000"/><text fill="#000000" font-family="sans-serif" font-size="14" lengthAdjust="spacing" textLength="101" x="1143.75" y="240.5332">MomentMatcher</text><line style="stroke:#181818;stroke-width:0.5;" x1="1019" x2="1337" y1="258.6094" y2="258.6094"/><line style="stroke:#181818;stroke-width:0.5;" x1="1019" x2="1337" y1="266.6094" y2="266.6094"/></g><!--class ParameterOptimizer--><g id="elem_ParameterOptimizer"><rect codeLine="29" fill="#F1F1F1" height="63.6094" id="ParameterOptimizer" rx="2.5" ry="2.5" style="stroke:#181818;stroke-width:0.5;" width="320" x="946" y="360"/><ellipse cx="1029.25" cy="383.8047" fill="#ADD1B2" rx="11" ry="11" style="stroke:#181818;stroke-width:1.0;"/><path d="M1032.0156,379.6797 Q1032.1719,379.4609 1032.3594,379.3516 Q1032.5469,379.2422 1032.7656,379.2422 Q1033.1406,379.2422 1033.375,379.5078 Q1033.6094,379.7578 1033.6094,380.3672 L1033.6094,381.8203 Q1033.6094,382.4297 1033.375,382.6953 Q1033.1406,382.9609 1032.7656,382.9609 Q1032.4219,382.9609 1032.2188,382.7578 Q1032.0156,382.5703 1031.9063,382.0547 Q1031.8594,381.6953 1031.6719,381.5078 Q1031.3438,381.1328 1030.7344,380.9141 Q1030.125,380.6953 1029.5,380.6953 Q1028.7344,380.6953 1028.0938,381.0234 Q1027.4688,381.3516 1026.9688,382.1016 Q1026.4844,382.8516 1026.4844,383.8828 L1026.4844,384.9766 Q1026.4844,386.2109 1027.375,387.0391 Q1028.2656,387.8516 1029.8594,387.8516 Q1030.7969,387.8516 1031.4531,387.6016 Q1031.8438,387.4453 1032.2656,387.0078 Q1032.5313,386.7422 1032.6719,386.6641 Q1032.8281,386.5859 1033.0313,386.5859 Q1033.3594,386.5859 1033.6094,386.8516 Q1033.875,387.1016 1033.875,387.4453 Q1033.875,387.7891 1033.5313,388.1953 Q1033.0313,388.7734 1032.2344,389.1016 Q1031.1563,389.5547 1029.8594,389.5547 Q1028.3438,389.5547 1027.1406,388.9297 Q1026.1563,388.4297 1025.4688,387.3672 Q1024.7813,386.2891 1024.7813,385.0078 L1024.7813,383.8516 Q1024.7813,382.5234 1025.3906,381.3828 Q1026.0156,380.2266 1027.1094,379.6172 Q1028.2031,378.9922 1029.4375,378.9922 Q1030.1719,378.9922 1030.8125,379.1641 Q1031.4688,379.3203 1032.0156,379.6797 Z " fill="#000000"/><text fill="#000000" font-family="sans-serif" font-size="14" lengthAdjust="spacing" textLength="125" x="1059.75" y="389.5332">ParameterOptimizer</text><line style="stroke:#181818;stroke-width:0.5;" x1="947" x2="1265" y1="407.6094" y2="407.6094"/><line style="stroke:#181818;stroke-width:0.5;" x1="947" x2="1265" y1="415.6094" y2="415.6094"/></g><!--class EsscherSolver--><g id="elem_EsscherSolver"><rect codeLine="30" fill="#F1F1F1" height="63.6094" id="EsscherSolver" rx="2.5" ry="2.5" style="stroke:#181818;stroke-width:0.5;" width="320" x="919" y="509"/><ellipse cx="1019.25" cy="532.8047" fill="#ADD1B2" rx="11" ry="11" style="stroke:#181818;stroke-width:1.0;"/><path d="M1022.0156,528.6797 Q1022.1719,528.4609 1022.3594,528.3516 Q1022.5469,528.2422 1022.7656,528.2422 Q1023.1406,528.2422 1023.375,528.5078 Q1023.6094,528.7578 1023.6094,529.3672 L1023.6094,530.8203 Q1023.6094,531.4297 1023.375,531.6953 Q1023.1406,531.9609 1022.7656,531.9609 Q1022.4219,531.9609 1022.2188,531.7578 Q1022.0156,531.5703 1021.9063,531.0547 Q1021.8594,530.6953 1021.6719,530.5078 Q1021.3438,530.1328 1020.7344,529.9141 Q1020.125,529.6953 1019.5,529.6953 Q1018.7344,529.6953 1018.0938,530.0234 Q1017.4688,530.3516 1016.9688,531.1016 Q1016.4844,531.8516 1016.4844,532.8828 L1016.4844,533.9766 Q1016.4844,535.2109 1017.375,536.0391 Q1018.2656,536.8516 1019.8594,536.8516 Q1020.7969,536.8516 1021.4531,536.6016 Q1021.8438,536.4453 1022.2656,536.0078 Q1022.5313,535.7422 1022.6719,535.6641 Q1022.8281,535.5859 1023.0313,535.5859 Q1023.3594,535.5859 1023.6094,535.8516 Q1023.875,536.1016 1023.875,536.4453 Q1023.875,536.7891 1023.5313,537.1953 Q1023.0313,537.7734 1022.2344,538.1016 Q1021.1563,538.5547 1019.8594,538.5547 Q1018.3438,538.5547 1017.1406,537.9297 Q1016.1563,537.4297 1015.4688,536.3672 Q1014.7813,535.2891 1014.7813,534.0078 L1014.7813,532.8516 Q1014.7813,531.5234 1015.3906,530.3828 Q1016.0156,529.2266 1017.1094,528.6172 Q1018.2031,527.9922 1019.4375,527.9922 Q1020.1719,527.9922 1020.8125,528.1641 Q1021.4688,528.3203 1022.0156,528.6797 Z " fill="#000000"/><text fill="#000000" font-family="sans-serif" font-size="14" lengthAdjust="spacing" textLength="91" x="1049.75" y="538.5332">EsscherSolver</text><line style="stroke:#181818;stroke-width:0.5;" x1="920" x2="1238" y1="556.6094" y2="556.6094"/><line style="stroke:#181818;stroke-width:0.5;" x1="920" x2="1238" y1="564.6094" y2="564.6094"/></g><!--class AssetInferenceEngine--><g id="elem_AssetInferenceEngine"><rect codeLine="31" fill="#F1F1F1" height="63.6094" id="AssetInferenceEngine" rx="2.5" ry="2.5" style="stroke:#181818;stroke-width:0.5;" width="320" x="670" y="658"/><ellipse cx="746.75" cy="681.8047" fill="#ADD1B2" rx="11" ry="11" style="stroke:#181818;stroke-width:1.0;"/><path d="M749.5156,677.6797 Q749.6719,677.4609 749.8594,677.3516 Q750.0469,677.2422 750.2656,677.2422 Q750.6406,677.2422 750.875,677.5078 Q751.1094,677.7578 751.1094,678.3672 L751.1094,679.8203 Q751.1094,680.4297 750.875,680.6953 Q750.6406,680.9609 750.2656,680.9609 Q749.9219,680.9609 749.7188,680.7578 Q749.5156,680.5703 749.4063,680.0547 Q749.3594,679.6953 749.1719,679.5078 Q748.8438,679.1328 748.2344,678.9141 Q747.625,678.6953 747,678.6953 Q746.2344,678.6953 745.5938,679.0234 Q744.9688,679.3516 744.4688,680.1016 Q743.9844,680.8516 743.9844,681.8828 L743.9844,682.9766 Q743.9844,684.2109 744.875,685.0391 Q745.7656,685.8516 747.3594,685.8516 Q748.2969,685.8516 748.9531,685.6016 Q749.3438,685.4453 749.7656,685.0078 Q750.0313,684.7422 750.1719,684.6641 Q750.3281,684.5859 750.5313,684.5859 Q750.8594,684.5859 751.1094,684.8516 Q751.375,685.1016 751.375,685.4453 Q751.375,685.7891 751.0313,686.1953 Q750.5313,686.7734 749.7344,687.1016 Q748.6563,687.5547 747.3594,687.5547 Q745.8438,687.5547 744.6406,686.9297 Q743.6563,686.4297 742.9688,685.3672 Q742.2813,684.2891 742.2813,683.0078 L742.2813,681.8516 Q742.2813,680.5234 742.8906,679.3828 Q743.5156,678.2266 744.6094,677.6172 Q745.7031,676.9922 746.9375,676.9922 Q747.6719,676.9922 748.3125,677.1641 Q748.9688,677.3203 749.5156,677.6797 Z " fill="#000000"/><text fill="#000000" font-family="sans-serif" font-size="14" lengthAdjust="spacing" textLength="138" x="777.25" y="687.5332">AssetInferenceEngine</text><line style="stroke:#181818;stroke-width:0.5;" x1="671" x2="989" y1="705.6094" y2="705.6094"/><line style="stroke:#181818;stroke-width:0.5;" x1="671" x2="989" y1="713.6094" y2="713.6094"/></g><!--class AssetInverter--><g id="elem_AssetInverter"><rect codeLine="32" fill="#F1F1F1" height="63.6094" id="AssetInverter" rx="2.5" ry="2.5" style="stroke:#181818;stroke-width:0.5;" width="320" x="670" y="807"/><ellipse cx="774.25" cy="830.8047" fill="#ADD1B2" rx="11" ry="11" style="stroke:#181818;stroke-width:1.0;"/><path d="M777.0156,826.6797 Q777.1719,826.4609 777.3594,826.3516 Q777.5469,826.2422 777.7656,826.2422 Q778.1406,826.2422 778.375,826.5078 Q778.6094,826.7578 778.6094,827.3672 L778.6094,828.8203 Q778.6094,829.4297 778.375,829.6953 Q778.1406,829.9609 777.7656,829.9609 Q777.4219,829.9609 777.2188,829.7578 Q777.0156,829.5703 776.9063,829.0547 Q776.8594,828.6953 776.6719,828.5078 Q776.3438,828.1328 775.7344,827.9141 Q775.125,827.6953 774.5,827.6953 Q773.7344,827.6953 773.0938,828.0234 Q772.4688,828.3516 771.9688,829.1016 Q771.4844,829.8516 771.4844,830.8828 L771.4844,831.9766 Q771.4844,833.2109 772.375,834.0391 Q773.2656,834.8516 774.8594,834.8516 Q775.7969,834.8516 776.4531,834.6016 Q776.8438,834.4453 777.2656,834.0078 Q777.5313,833.7422 777.6719,833.6641 Q777.8281,833.5859 778.0313,833.5859 Q778.3594,833.5859 778.6094,833.8516 Q778.875,834.1016 778.875,834.4453 Q778.875,834.7891 778.5313,835.1953 Q778.0313,835.7734 777.2344,836.1016 Q776.1563,836.5547 774.8594,836.5547 Q773.3438,836.5547 772.1406,835.9297 Q771.1563,835.4297 770.4688,834.3672 Q769.7813,833.2891 769.7813,832.0078 L769.7813,830.8516 Q769.7813,829.5234 770.3906,828.3828 Q771.0156,827.2266 772.1094,826.6172 Q773.2031,825.9922 774.4375,825.9922 Q775.1719,825.9922 775.8125,826.1641 Q776.4688,826.3203 777.0156,826.6797 Z " fill="#000000"/><text fill="#000000" font-family="sans-serif" font-size="14" lengthAdjust="spacing" textLength="83" x="804.75" y="836.5332">AssetInverter</text><line style="stroke:#181818;stroke-width:0.5;" x1="671" x2="989" y1="854.6094" y2="854.6094"/><line style="stroke:#181818;stroke-width:0.5;" x1="671" x2="989" y1="862.6094" y2="862.6094"/></g><!--class LewisEuropeanTargetPricer--><g id="elem_LewisEuropeanTargetPricer"><rect codeLine="33" fill="#F1F1F1" height="63.6094" id="LewisEuropeanTargetPricer" rx="2.5" ry="2.5" style="stroke:#181818;stroke-width:0.5;" width="320" x="670" y="956"/><ellipse cx="727.75" cy="979.8047" fill="#ADD1B2" rx="11" ry="11" style="stroke:#181818;stroke-width:1.0;"/><path d="M730.5156,975.6797 Q730.6719,975.4609 730.8594,975.3516 Q731.0469,975.2422 731.2656,975.2422 Q731.6406,975.2422 731.875,975.5078 Q732.1094,975.7578 732.1094,976.3672 L732.1094,977.8203 Q732.1094,978.4297 731.875,978.6953 Q731.6406,978.9609 731.2656,978.9609 Q730.9219,978.9609 730.7188,978.7578 Q730.5156,978.5703 730.4063,978.0547 Q730.3594,977.6953 730.1719,977.5078 Q729.8438,977.1328 729.2344,976.9141 Q728.625,976.6953 728,976.6953 Q727.2344,976.6953 726.5938,977.0234 Q725.9688,977.3516 725.4688,978.1016 Q724.9844,978.8516 724.9844,979.8828 L724.9844,980.9766 Q724.9844,982.2109 725.875,983.0391 Q726.7656,983.8516 728.3594,983.8516 Q729.2969,983.8516 729.9531,983.6016 Q730.3438,983.4453 730.7656,983.0078 Q731.0313,982.7422 731.1719,982.6641 Q731.3281,982.5859 731.5313,982.5859 Q731.8594,982.5859 732.1094,982.8516 Q732.375,983.1016 732.375,983.4453 Q732.375,983.7891 732.0313,984.1953 Q731.5313,984.7734 730.7344,985.1016 Q729.6563,985.5547 728.3594,985.5547 Q726.8438,985.5547 725.6406,984.9297 Q724.6563,984.4297 723.9688,983.3672 Q723.2813,982.2891 723.2813,981.0078 L723.2813,979.8516 Q723.2813,978.5234 723.8906,977.3828 Q724.5156,976.2266 725.6094,975.6172 Q726.7031,974.9922 727.9375,974.9922 Q728.6719,974.9922 729.3125,975.1641 Q729.9688,975.3203 730.5156,975.6797 Z " fill="#000000"/><text fill="#000000" font-family="sans-serif" font-size="14" lengthAdjust="spacing" textLength="176" x="758.25" y="985.5332">LewisEuropeanTargetPricer</text><line style="stroke:#181818;stroke-width:0.5;" x1="671" x2="989" y1="1003.6094" y2="1003.6094"/><line style="stroke:#181818;stroke-width:0.5;" x1="671" x2="989" y1="1011.6094" y2="1011.6094"/></g><!--class Model--><g id="elem_Model"><rect codeLine="45" fill="#F1F1F1" height="63.6094" id="Model" rx="2.5" ry="2.5" style="stroke:#181818;stroke-width:0.5;" width="320" x="936" y="1116"/><ellipse cx="1062.25" cy="1139.8047" fill="#A9DCDF" rx="11" ry="11" style="stroke:#181818;stroke-width:1.0;"/><path d="M1064.4375,1141.5703 L1060.2969,1141.5703 L1059.875,1142.6016 L1060.2969,1142.6016 Q1060.9063,1142.6016 1061.1719,1142.8359 Q1061.4375,1143.0703 1061.4375,1143.4609 Q1061.4375,1143.8359 1061.1719,1144.0703 Q1060.9063,1144.3047 1060.2969,1144.3047 L1058,1144.3047 Q1057.3906,1144.3047 1057.1406,1144.0703 Q1056.875,1143.8359 1056.875,1143.4453 Q1056.875,1143.0703 1057.1563,1142.8359 Q1057.4219,1142.5859 1058.0469,1142.6016 L1060.7188,1135.9453 L1059.6094,1135.9453 Q1059,1135.9453 1058.7344,1135.7109 Q1058.4688,1135.4766 1058.4688,1135.0859 Q1058.4688,1134.7109 1058.7344,1134.4766 Q1059,1134.2422 1059.6094,1134.2422 L1063.2813,1134.2422 L1066.6719,1142.6016 Q1067.2656,1142.6016 1067.4531,1142.7422 Q1067.8438,1143.0078 1067.8438,1143.4609 Q1067.8438,1143.8359 1067.5781,1144.0703 Q1067.3281,1144.3047 1066.7188,1144.3047 L1064.4219,1144.3047 Q1063.8125,1144.3047 1063.5469,1144.0703 Q1063.2813,1143.8359 1063.2813,1143.4453 Q1063.2813,1143.0703 1063.5469,1142.8359 Q1063.8125,1142.6016 1064.4219,1142.6016 L1064.8438,1142.6016 L1064.4375,1141.5703 Z M1063.7188,1139.8672 L1062.3594,1136.4922 L1060.9844,1139.8672 L1063.7188,1139.8672 Z " fill="#000000"/><text fill="#000000" font-family="sans-serif" font-size="14" font-style="italic" lengthAdjust="spacing" textLength="39" x="1092.75" y="1145.5332">Model</text><line style="stroke:#181818;stroke-width:0.5;" x1="937" x2="1255" y1="1163.6094" y2="1163.6094"/><line style="stroke:#181818;stroke-width:0.5;" x1="937" x2="1255" y1="1171.6094" y2="1171.6094"/></g><!--link Calibrator to MomentMatcher--><!--link Calibrator to MomentMatcher--><g id="link_Calibrator_MomentMatcher"><path codeLine="52" d="M1023.67,126.33 C1023.67,151.41 1023.67,179.99 1023.67,204.99 " fill="none" id="Calibrator-to-MomentMatcher" style="stroke:#181818;stroke-width:1.0;"/><polygon fill="#181818" points="1023.67,210.99,1027.67,201.99,1023.67,205.99,1019.67,201.99,1023.67,210.99" style="stroke:#181818;stroke-width:1.0;"/><text fill="#000000" font-family="sans-serif" font-size="13" lengthAdjust="spacing" textLength="102" x="910.67" y="155.1551">STEP 1 / STEP 4</text></g><!--link MomentMatcher to ParameterOptimizer--><!--link ParameterOptimizer to EsscherSolver--><!--link EsscherSolver to AssetInferenceEngine--><!--link AssetInferenceEngine to AssetInverter--><!--link AssetInferenceEngine to AssetInverter--><g id="link_AssetInferenceEngine_AssetInverter"><path codeLine="57" d="M776.67,722.33 C776.67,747.41 776.67,775.99 776.67,800.99 " fill="none" id="AssetInferenceEngine-to-AssetInverter" style="stroke:#181818;stroke-width:1.0;"/><polygon fill="#181818" points="776.67,806.99,780.67,797.99,776.67,801.99,772.67,797.99,776.67,806.99" style="stroke:#181818;stroke-width:1.0;"/><text fill="#000000" font-family="sans-serif" font-size="13" lengthAdjust="spacing" textLength="121" x="644.67" y="751.1551">invert equity -&gt; asset</text></g><!--link AssetInverter to LewisEuropeanTargetPricer--><!--link AssetInverter to LewisEuropeanTargetPricer--><g id="link_AssetInverter_LewisEuropeanTargetPricer"><path codeLine="58" d="M883.33,871.33 C883.33,896.41 883.33,924.99 883.33,949.99 " fill="none" id="AssetInverter-to-LewisEuropeanTargetPricer" style="stroke:#181818;stroke-width:1.0;"/><polygon fill="#181818" points="883.33,955.99,887.33,946.99,883.33,950.99,879.33,946.99,883.33,955.99" style="stroke:#181818;stroke-width:1.0;"/><text fill="#000000" font-family="sans-serif" font-size="13" lengthAdjust="spacing" textLength="87" x="785.33" y="900.1551">residual pricing</text></g><!--link Calibrator to CalibrationData--><g id="link_Calibrator_CalibrationData"><path codeLine="49" d="M714.71,94 C510.02,94 182,94 182,94 C182,94 182,160.85 182,204.67 " fill="none" id="Calibrator-to-CalibrationData" style="stroke:#181818;stroke-width:1.0;"/><polygon fill="#181818" points="182,210.67,186,201.67,182,205.67,178,201.67,182,210.67" style="stroke:#181818;stroke-width:1.0;"/><text fill="#000000" font-family="sans-serif" font-size="13" lengthAdjust="spacing" textLength="28" x="351.02" y="80.4951">uses</text></g><!--link Calibrator to CalibrationConfig--><g id="link_Calibrator_CalibrationConfig"><path codeLine="50" d="M723.5,126.33 C723.5,151.41 723.5,179.99 723.5,204.99 " fill="none" id="Calibrator-to-CalibrationConfig" style="stroke:#181818;stroke-width:1.0;"/><polygon fill="#181818" points="723.5,210.99,727.5,201.99,723.5,205.99,719.5,201.99,723.5,210.99" style="stroke:#181818;stroke-width:1.0;"/><text fill="#000000" font-family="sans-serif" font-size="13" lengthAdjust="spacing" textLength="28" x="684.5" y="155.1551">uses</text></g><!--link Calibrator to ParameterOptimizer--><g id="link_Calibrator_ParameterOptimizer"><path codeLine="53" d="M982,126.17 C982,183.52 982,296.72 982,353.96 " fill="none" id="Calibrator-to-ParameterOptimizer" style="stroke:#181818;stroke-width:1.0;"/><polygon fill="#181818" points="982,359.96,986,350.96,982,354.96,978,350.96,982,359.96" style="stroke:#181818;stroke-width:1.0;"/><text fill="#000000" font-family="sans-serif" font-size="13" lengthAdjust="spacing" textLength="102" x="869" y="229.5651">STEP 1 / STEP 4</text></g><!--link Calibrator to EsscherSolver--><g id="link_Calibrator_EsscherSolver"><path codeLine="54" d="M932.5,126.15 C932.5,208.52 932.5,420.46 932.5,502.84 " fill="none" id="Calibrator-to-EsscherSolver" style="stroke:#181818;stroke-width:1.0;"/><polygon fill="#181818" points="932.5,508.84,936.5,499.84,932.5,503.84,928.5,499.84,932.5,508.84" style="stroke:#181818;stroke-width:1.0;"/><text fill="#000000" font-family="sans-serif" font-size="13" lengthAdjust="spacing" textLength="93" x="828.5" y="303.9951">STEP 2 (p_star)</text></g><!--link Calibrator to AssetInferenceEngine--><g id="link_Calibrator_AssetInferenceEngine"><path codeLine="55" d="M825.5,126.04 C825.5,229.53 825.5,548.09 825.5,651.8 " fill="none" id="Calibrator-to-AssetInferenceEngine" style="stroke:#181818;stroke-width:1.0;"/><polygon fill="#181818" points="825.5,657.8,829.5,648.8,825.5,652.8,821.5,648.8,825.5,657.8" style="stroke:#181818;stroke-width:1.0;"/><text fill="#000000" font-family="sans-serif" font-size="13" lengthAdjust="spacing" textLength="96" x="718.5" y="378.4151">STEP 3 (assets)</text></g><!--link MomentMatcher to Model--><g id="link_MomentMatcher_Model"><path codeLine="61" d="M1302,275.21 C1302,436.43 1302,1148 1302,1148 C1302,1148 1288.75,1148 1262.03,1148 " fill="none" id="MomentMatcher-to-Model" style="stroke:#181818;stroke-width:1.0;"/><polygon fill="#181818" points="1256.03,1148,1265.03,1152,1261.03,1148,1265.03,1144,1256.03,1148" style="stroke:#181818;stroke-width:1.0;"/><text fill="#000000" font-family="sans-serif" font-size="13" lengthAdjust="spacing" textLength="145" x="1146" y="721.0851">theoretical cumulants (P)</text></g><!--link EsscherSolver to Model--><g id="link_EsscherSolver_Model"><path codeLine="62" d="M1114.5,573.21 C1114.5,678.35 1114.5,1004.84 1114.5,1109.87 " fill="none" id="EsscherSolver-to-Model" style="stroke:#181818;stroke-width:1.0;"/><polygon fill="#181818" points="1114.5,1115.87,1118.5,1106.87,1114.5,1110.87,1110.5,1106.87,1114.5,1115.87" style="stroke:#181818;stroke-width:1.0;"/><text fill="#000000" font-family="sans-serif" font-size="13" lengthAdjust="spacing" textLength="118" x="1125.5" y="831.0351">CGF(P) + p* bounds</text></g><!--link LewisEuropeanTargetPricer to Model--><g id="link_LewisEuropeanTargetPricer_Model"><path codeLine="63" d="M963,1020.38 C963,1048.23 963,1082.19 963,1109.94 " fill="none" id="LewisEuropeanTargetPricer-to-Model" style="stroke:#181818;stroke-width:1.0;"/><polygon fill="#181818" points="963,1115.94,967,1106.94,963,1110.94,959,1106.94,963,1115.94" style="stroke:#181818;stroke-width:1.0;"/><text fill="#000000" font-family="sans-serif" font-size="13" lengthAdjust="spacing" textLength="35" x="917" y="1054.6551">chf(Q)</text></g><!--SRC=[rLPDRnit4BtlhnZuOgcDKkUZQA5305TM70Dsui91UoWAWrgEjCHoELkIage6_UzzNCdoQhL2SurEo-6R8UVDcw7EQJGQqRKeEwOBohs4m9gKzx8Ez3sjZMPF3xzTKwxSIWKQh4qiP1bfPOAPMQPGgnmGauiBmonAJL5e9Z5AHTfupgCHbuNIk5fvLP4rZkEcPXAFG5bsJdVYcMQULIoCMv0NgLfu9ve3r_JJHSlebIkJyUSVMyPQQPq2l6eZGw6qh9DvhcpWvZnLuZpvcyCklI0K2sworCB1dKUo8YNOK5NDkXMjCcvYLGY_6nqBUlFwecVl0vj54UdjHJfhjF_HZNkYx6p7PJhTiJy3gU9BhDbQcal3zx3bYZYNk57AGIGcibqEkW8IIFUM5Ni5JstK8bradIxtWcOe4cDhiwNL00pQK2xFBhviNNmRzBsuE16Bqrkm8zGlui7OL-1KNYwyB9q-nkwIE7lyfdzdMGRbbsg1Ud88US7-iM98Mh_CbJKphwAWj2ZpvFAMlcGPKPxaGPFzxf49dNAbekgpJyJDpU8vofrKuF9EnNJmtdgVIi1WzrCTJMN-QMrDjtTy4BjgMI_Hxl76pHcLoNdg5kZExYRmiULoosiJfailDIltMVa5ntjlC0FIvSxfLctIUF3AM4oB3pTNLzEFmpGJhEGbAGI16wMO1ZnXV6nFV6Q5HdyKHgCp_aJZkj5HfWVhBhYNW6DZrwrBpi6w2px1MP_vXEkUqODr5toQw7zFQw_2kBIDxEu-NK5sH6eMq7rvt0i7W1IX6KuqIULuWIdhHitmRoOmsqPpg9yuksc638u1wmOL4ySOzErwDTTzrrKnZMc94VK_oAskdx1zuCDwZ-dXy_IUNj4Fsu-tVIuz1VyglyEoxrnUqw1-357vtgHxgxxpV4C3bRP1LzQlZiCWEncCCT_J9_5VInCt140J9kkePUTyKYO8v3aOlKJHQbXGskrp2m6GvfeTj9ORl2A3aklut9DeLhKIe-b94KYWqtNxsgHOuwGGFE9RxtnPBQro4M7lXrcdapf-a-lt0E5_HlqTNcIy5Y4xdKxNEI_cWr-7sNy0]--></g></svg>