<?xml version="1.0" encoding="us-ascii" standalone="no"?><svg xmlns="http://www.w3.org/2000/svg" xmlns:xlink="http://www.w3.org/1999/xlink" contentStyleType="text/css" height="1222px" preserveAspectRatio="none" style="width:1670px;height:1222px;background:#FFFFFF;" version="1.1" viewBox="0 0 1670 1222" width="1670px" zoomAndPan="magnify"><defs/><g><text fill="#000000" font-family="sans-serif" font-size="14" font-weight="bold" lengthAdjust="spacing" textLength="241" x="710.5" y="29.5332">Esscher Method - Calibration Flow</text><rect fill="none" height="170.1094" style="stroke:#000000;stroke-width:1.5;" width="1547.5" x="105.5" y="635.4922"/><line style="stroke:#181818;stroke-width:0.5;stroke-dasharray:5.0,5.0;" x1="22" x2="22" y1="121.2188" y2="1140.1172"/><line style="stroke:#181818;stroke-width:0.5;stroke-dasharray:5.0,5.0;" x1="178.5" x2="178.5" y1="121.2188" y2="1140.1172"/><line style="stroke:#181818;stroke-width:0.5;stroke-dasharray:5.0,5.0;" x1="465" x2="465" y1="121.2188" y2="1140.1172"/><line style="stroke:#181818;stroke-width:0.5;stroke-dasharray:5.0,5.0;" x1="652" x2="652" y1="121.2188" y2="1140.1172"/><line style="stroke:#181818;stroke-width:0.5;stroke-dasharray:5.0,5.0;" x1="834" x2="834" y1="121.2188" y2="1140.1172"/><line style="stroke:#181818;stroke-width:0.5;stroke-dasharray:5.0,5.0;" x1="1023" x2="1023" y1="121.2188" y2="1140.1172"/><line style="stroke:#181818;stroke-width:0.5;stroke-dasharray:5.0,5.0;" x1="1207" x2="1207" y1="121.2188" y2="1140.1172"/><line style="stroke:#181818;stroke-width:0.5;stroke-dasharray:5.0,5.0;" x1="1411" x2="1411" y1="121.2188" y2="1140.1172"/><line style="stroke:#181818;stroke-width:0.5;stroke-dasharray:5.0,5.0;" x1="1592" x2="1592" y1="121.2188" y2="1140.1172"/><text fill="#000000" font-family="sans-serif" font-size="14" lengthAdjust="spacing" textLength="29" x="5" y="118.1426">User</text><ellipse cx="22.5" cy="52.1094" fill="#E2E2F0" rx="8" ry="8" style="stroke:#181818;stroke-width:0.5;"/><path d="M22.5,60.1094 L22.5,87.1094 M9.5,68.1094 L35.5,68.1094 M22.5,87.1094 L9.5,102.1094 M22.5,87.1094 L35.5,102.1094 " fill="none" style="stroke:#181818;stroke-width:0.5;"/><text fill="#000000" font-family="sans-serif" font-size="14" lengthAdjust="spacing" textLength="29" x="5" y="1153.6504">User</text><ellipse cx="22.5" cy="1165.2266" fill="#E2E2F0" rx="8" ry="8" style="stroke:#181818;stroke-width:0.5;"/><path d="M22.5,1173.2266 L22.5,1200.2266 M9.5,1181.2266 L35.5,1181.2266 M22.5,1200.2266 L9.5,1215.2266 M22.5,1200.2266 L35.5,1215.2266 " fill="none" style="stroke:#181818;stroke-width:0.5;"/><rect fill="#E2E2F0" height="31.6094" rx="2.5" ry="2.5" style="stroke:#181818;stroke-width:0.5;" width="76" x="140.5" y="88.6094"/><text fill="#000000" font-family="sans-serif" font-size="14" lengthAdjust="spacing" textLength="62" x="147.5" y="110.1426">Calibrator</text><rect fill="#E2E2F0" height="31.6094" rx="2.5" ry="2.5" style="stroke:#181818;stroke-width:0.5;" width="76" x="140.5" y="1139.1172"/><text fill="#000000" font-family="sans-serif" font-size="14" lengthAdjust="spacing" textLength="62" x="147.5" y="1160.6504">Calibrator</text><rect fill="#E2E2F0" height="31.6094" rx="2.5" ry="2.5" style="stroke:#181818;stroke-width:0.5;" width="115" x="408" y="88.6094"/><text fill="#000000" font-family="sans-serif" font-size="14" lengthAdjust="spacing" textLength="101" x="415" y="110.1426">MomentMatcher</text><rect fill="#E2E2F0" height="31.6094" rx="2.5" ry="2.5" style="stroke:#181818;stroke-width:0.5;" width="115" x="408" y="1139.1172"/><text fill="#000000" font-family="sans-serif" font-size="14" lengthAdjust="spacing" textLength="101" x="415" y="1160.6504">MomentMatcher</text><rect fill="#E2E2F0" height="31.6094" rx="2.5" ry="2.5" style="stroke:#181818;stroke-width:0.5;" width="139" x="583" y="88.6094"/><text fill="#000000" font-family="sans-serif" font-size="14" lengthAdjust="spacing" textLength="125" x="590" y="110.1426">ParameterOptimizer</text><rect fill="#E2E2F0" height="31.6094" rx="2.5" ry="2.5" style="stroke:#181818;stroke-width:0.5;" width="139" x="583" y="1139.1172"/><text fill="#000000" font-family="sans-serif" font-size="14" lengthAdjust="spacing" textLength="125" x="590" y="1160.6504">ParameterOptimizer</text><rect fill="#E2E2F0" height="31.6094" rx="2.5" ry="2.5" style="stroke:#181818;stroke-width:0.5;" width="105" x="782" y="88.6094"/><text fill="#000000" font-family="sans-serif" font-size="14" lengthAdjust="spacing" textLength="91" x="789" y="110.1426">EsscherSolver</text><rect fill="#E2E2F0" height="31.6094" rx="2.5" ry="2.5" style="stroke:#181818;stroke-width:0.5;" width="105" x="782" y="1139.1172"/><text fill="#000000" font-family="sans-serif" font-size="14" lengthAdjust="spacing" textLength="91" x="789" y="1160.6504">EsscherSolver</text><rect fill="#E2E2F0" height="31.6094" rx="2.5" ry="2.5" style="stroke:#181818;stroke-width:0.5;" width="152" x="947" y="88.6094"/><text fill="#000000" font-family="sans-serif" font-size="14" lengthAdjust="spacing" textLength="138" x="954" y="110.1426">AssetInferenceEngine</text><rect fill="#E2E2F0" height="31.6094" rx="2.5" ry="2.5" style="stroke:#181818;stroke-width:0.5;" width="152" x="947" y="1139.1172"/><text fill="#000000" font-family="sans-serif" font-size="14" lengthAdjust="spacing" textLength="138" x="954" y="1160.6504">AssetInferenceEngine</text><rect fill="#E2E2F0" height="31.6094" rx="2.5" ry="2.5" style="stroke:#181818;stroke-width:0.5;" width="97" x="1159" y="88.6094"/><text fill="#000000" font-family="sans-serif" font-size="14" lengthAdjust="spacing" textLength="83" x="1166" y="110.1426">AssetInverter</text><rect fill="#E2E2F0" height="31.6094" rx="2.5" ry="2.5" style="stroke:#181818;stroke-width:0.5;" width="97" x="1159" y="1139.1172"/><text fill="#000000" font-family="sans-serif" font-size="14" lengthAdjust="spacing" textLength="83" x="1166" y="1160.6504">AssetInverter</text><rect fill="#E2E2F0" height="31.6094" rx="2.5" ry="2.5" style="stroke:#181818;stroke-width:0.5;" width="190" x="1316" y="88.6094"/><text fill="#000000" font-family="sans-serif" font-size="14" lengthAdjust="spacing" textLength="176" x="1323" y="110.1426">LewisEuropeanTargetPricer</text><rect fill="#E2E2F0" height="31.6094" rx="2.5" ry="2.5" style="stroke:#181818;stroke-width:0.5;" width="190" x="1316" y="1139.1172"/><text fill="#000000" font-family="sans-serif" font-size="14" lengthAdjust="spacing" textLength="176" x="1323" y="1160.6504">LewisEuropeanTargetPricer</text><rect fill="#E2E2F0" height="31.6094" rx="2.5" ry="2.5" style="stroke:#181818;stroke-width:0.5;" width="52" x="1566" y="88.6094"/><text fill="#000000" font-family="sans-serif" font-size="14" lengthAdjust="spacing" textLength="38" x="1573" y="110.1426">Model</text><rect fill="#E2E2F0" height="31.6094" rx="2.5" ry="2.5" style="stroke:#181818;stroke-width:0.5;" width="52" x="1566" y="1139.1172"/><text fill="#000000" font-family="sans-serif" font-size="14" lengthAdjust="spacing" textLength="38" x="1573" y="1160.6504">Model</text><polygon fill="#181818" points="166.5,149.5703,176.5,153.5703,166.5,157.5703,170.5,153.5703" style="stroke:#181818;stroke-width:1.0;"/><line style="stroke:#181818;stroke-width:1.0;" x1="22.5" x2="172.5" y1="153.5703" y2="153.5703"/><text fill="#000000" font-family="sans-serif" font-size="13" lengthAdjust="spacing" textLength="67" x="29.5" y="148.7139">calibration()</text><rect fill="#EEEEEE" height="3" style="stroke:#EEEEEE;stroke-width:1.0;" width="1663" x="0" y="182.7461"/><line style="stroke:#000000;stroke-width:1.0;" x1="0" x2="1663" y1="182.7461" y2="182.7461"/><line style="stroke:#000000;stroke-width:1.0;" x1="0" x2="1663" y1="185.7461" y2="185.7461"/><rect fill="#EEEEEE" height="24.3516" style="stroke:#000000;stroke-width:2.0;" width="250" x="706.5" y="171.5703"/><text fill="#000000" font-family="sans-serif" font-size="13" font-weight="bold" lengthAdjust="spacing" textLength="232" x="712.5" y="189.0654">STEP 1: physical fit on equity returns</text><polygon fill="#181818" points="453.5,224.2734,463.5,228.2734,453.5,232.2734,457.5,228.2734" style="stroke:#181818;stroke-width:1.0;"/><line style="stroke:#181818;stroke-width:1.0;" x1="178.5" x2="459.5" y1="228.2734" y2="228.2734"/><text fill="#000000" font-family="sans-serif" font-size="13" lengthAdjust="spacing" textLength="263" x="185.5" y="223.417">update_sample_cumulants(equity log-returns)</text><polygon fill="#181818" points="640.5,254.625,650.5,258.625,640.5,262.625,644.5,258.625" style="stroke:#181818;stroke-width:1.0;"/><line style="stroke:#181818;stroke-width:1.0;" x1="178.5" x2="646.5" y1="258.625" y2="258.625"/><text fill="#000000" font-family="sans-serif" font-size="13" lengthAdjust="spacing" textLength="202" x="185.5" y="253.7686">estimate_parameters(initial_guess)</text><polygon fill="#181818" points="476.5,284.9766,466.5,288.9766,476.5,292.9766,472.5,288.9766" style="stroke:#181818;stroke-width:1.0;"/><line style="stroke:#181818;stroke-width:1.0;" x1="470.5" x2="651.5" y1="288.9766" y2="288.9766"/><text fill="#000000" font-family="sans-serif" font-size="13" lengthAdjust="spacing" textLength="50" x="482.5" y="284.1201">objective</text><polygon fill="#181818" points="1580,315.3281,1590,319.3281,1580,323.3281,1584,319.3281" style="stroke:#181818;stroke-width:1.0;"/><line style="stroke:#181818;stroke-width:1.0;" x1="465.5" x2="1586" y1="319.3281" y2="319.3281"/><text fill="#000000" font-family="sans-serif" font-size="13" lengthAdjust="spacing" textLength="181" x="472.5" y="314.4717">theoretical_cumulants_update()</text><polygon fill="#181818" points="189.5,345.6797,179.5,349.6797,189.5,353.6797,185.5,349.6797" style="stroke:#181818;stroke-width:1.0;"/><line style="stroke:#181818;stroke-width:1.0;stroke-dasharray:2.0,2.0;" x1="183.5" x2="651.5" y1="349.6797" y2="349.6797"/><text fill="#000000" font-family="sans-serif" font-size="13" lengthAdjust="spacing" textLength="95" x="195.5" y="344.8232">physical params</text><polygon fill="#181818" points="1580,376.0313,1590,380.0313,1580,384.0313,1584,380.0313" style="stroke:#181818;stroke-width:1.0;"/><line style="stroke:#181818;stroke-width:1.0;" x1="178.5" x2="1586" y1="380.0313" y2="380.0313"/><text fill="#000000" font-family="sans-serif" font-size="13" lengthAdjust="spacing" textLength="187" x="185.5" y="375.1748">parameters_convention_update()</text><rect fill="#EEEEEE" height="3" style="stroke:#EEEEEE;stroke-width:1.0;" width="1663" x="0" y="409.207"/><line style="stroke:#000000;stroke-width:1.0;" x1="0" x2="1663" y1="409.207" y2="409.207"/><line style="stroke:#000000;stroke-width:1.0;" x1="0" x2="1663" y1="412.207" y2="412.207"/><rect fill="#EEEEEE" height="24.3516" style="stroke:#000000;stroke-width:2.0;" width="183" x="740" y="398.0313"/><text fill="#000000" font-family="sans-serif" font-size="13" font-weight="bold" lengthAdjust="spacing" textLength="165" x="746" y="415.5264">STEP 2: Esscher transform</text><polygon fill="#181818" points="822.5,450.7344,832.5,454.7344,822.5,458.7344,826.5,454.7344" style="stroke:#181818;stroke-width:1.0;"/><line style="stroke:#181818;stroke-width:1.0;" x1="178.5" x2="828.5" y1="454.7344" y2="454.7344"/><text fill="#000000" font-family="sans-serif" font-size="13" lengthAdjust="spacing" textLength="81" x="185.5" y="449.8779">solve(p_initial)</text><polygon fill="#181818" points="1580,481.0859,1590,485.0859,1580,489.0859,1584,485.0859" style="stroke:#181818;stroke-width:1.0;"/><line style="stroke:#181818;stroke-width:1.0;" x1="834.5" x2="1586" y1="485.0859" y2="485.0859"/><text fill="#000000" font-family="sans-serif" font-size="13" lengthAdjust="spacing" textLength="146" x="841.5" y="480.2295">esscher_p_star_bounds()</text><polygon fill="#181818" points="1580,511.4375,1590,515.4375,1580,519.4375,1584,515.4375" style="stroke:#181818;stroke-width:1.0;"/><line style="stroke:#181818;stroke-width:1.0;" x1="834.5" x2="1586" y1="515.4375" y2="515.4375"/><text fill="#000000" font-family="sans-serif" font-size="13" lengthAdjust="spacing" textLength="262" x="841.5" y="510.5811">cumulant_generating_function(p), K(p+1)-K(p)</text><polygon fill="#181818" points="189.5,541.7891,179.5,545.7891,189.5,549.7891,185.5,545.7891" style="stroke:#181818;stroke-width:1.0;"/><line style="stroke:#181818;stroke-width:1.0;stroke-dasharray:2.0,2.0;" x1="183.5" x2="833.5" y1="545.7891" y2="545.7891"/><text fill="#000000" font-family="sans-serif" font-size="13" lengthAdjust="spacing" textLength="36" x="195.5" y="540.9326">p_star</text><polygon fill="#181818" points="1580,572.1406,1590,576.1406,1580,580.1406,1584,576.1406" style="stroke:#181818;stroke-width:1.0;"/><line style="stroke:#181818;stroke-width:1.0;" x1="178.5" x2="1586" y1="576.1406" y2="576.1406"/><text fill="#000000" font-family="sans-serif" font-size="13" lengthAdjust="spacing" textLength="229" x="185.5" y="571.2842">risk_neutral_parameters_update(p_star)</text><rect fill="#EEEEEE" height="3" style="stroke:#EEEEEE;stroke-width:1.0;" width="1663" x="0" y="605.3164"/><line style="stroke:#000000;stroke-width:1.0;" x1="0" x2="1663" y1="605.3164" y2="605.3164"/><line style="stroke:#000000;stroke-width:1.0;" x1="0" x2="1663" y1="608.3164" y2="608.3164"/><rect fill="#EEEEEE" height="24.3516" style="stroke:#000000;stroke-width:2.0;" width="142" x="760.5" y="594.1406"/><text fill="#000000" font-family="sans-serif" font-size="13" font-weight="bold" lengthAdjust="spacing" textLength="124" x="766.5" y="611.6357">STEP 3: infer assets</text><path d="M105.5,635.4922 L178.5,635.4922 L178.5,643.8438 L168.5,653.8438 L105.5,653.8438 L105.5,635.4922 " fill="#EEEEEE" style="stroke:#000000;stroke-width:1.5;"/><rect fill="none" height="170.1094" style="stroke:#000000;stroke-width:1.5;" width="1547.5" x="105.5" y="635.4922"/><text fill="#000000" font-family="sans-serif" font-size="13" font-weight="bold" lengthAdjust="spacing" textLength="28" x="120.5" y="649.9873">loop</text><text fill="#000000" font-family="sans-serif" font-size="11" font-weight="bold" lengthAdjust="spacing" textLength="75" x="193.5" y="648.9111">[for each day]</text><polygon fill="#181818" points="1011,672.1953,1021,676.1953,1011,680.1953,1015,676.1953" style="stroke:#181818;stroke-width:1.0;"/><line style="stroke:#181818;stroke-width:1.0;" x1="178.5" x2="1017" y1="676.1953" y2="676.1953"/><text fill="#000000" font-family="sans-serif" font-size="13" lengthAdjust="spacing" textLength="183" x="185.5" y="671.3389">infer_asset_values(day_indices)</text><polygon fill="#181818" points="1195.5,702.5469,1205.5,706.5469,1195.5,710.5469,1199.5,706.5469" style="stroke:#181818;stroke-width:1.0;"/><line style="stroke:#181818;stroke-width:1.0;" x1="1023" x2="1201.5" y1="706.5469" y2="706.5469"/><text fill="#000000" font-family="sans-serif" font-size="13" lengthAdjust="spacing" textLength="110" x="1030" y="701.6904">invert(target equity)</text><polygon fill="#181818" points="1399,732.8984,1409,736.8984,1399,740.8984,1403,736.8984" style="stroke:#181818;stroke-width:1.0;"/><line style="stroke:#181818;stroke-width:1.0;" x1="1207.5" x2="1405" y1="736.8984" y2="736.8984"/><text fill="#000000" font-family="sans-serif" font-size="13" lengthAdjust="spacing" textLength="104" x="1214.5" y="732.042">price_residual(S0)</text><polygon fill="#181818" points="1580,763.25,1590,767.25,1580,771.25,1584,767.25" style="stroke:#181818;stroke-width:1.0;"/><line style="stroke:#181818;stroke-width:1.0;" x1="1411" x2="1586" y1="767.25" y2="767.25"/><text fill="#000000" font-family="sans-serif" font-size="13" lengthAdjust="spacing" textLength="125" x="1418" y="762.3936">chf(risk_neutral=True)</text><polygon fill="#181818" points="1034,793.6016,1024,797.6016,1034,801.6016,1030,797.6016" style="stroke:#181818;stroke-width:1.0;"/><line style="stroke:#181818;stroke-width:1.0;stroke-dasharray:2.0,2.0;" x1="1028" x2="1206.5" y1="797.6016" y2="797.6016"/><text fill="#000000" font-family="sans-serif" font-size="13" lengthAdjust="spacing" textLength="97" x="1040" y="792.7451">implied asset S0</text><rect fill="#EEEEEE" height="3" style="stroke:#EEEEEE;stroke-width:1.0;" width="1663" x="0" y="833.7773"/><line style="stroke:#000000;stroke-width:1.0;" x1="0" x2="1663" y1="833.7773" y2="833.7773"/><line style="stroke:#000000;stroke-width:1.0;" x1="0" x2="1663" y1="836.7773" y2="836.7773"/><rect fill="#EEEEEE" height="24.3516" style="stroke:#000000;stroke-width:2.0;" width="255" x="704" y="822.6016"/><text fill="#000000" font-family="sans-serif" font-size="13" font-weight="bold" lengthAdjust="spacing" textLength="237" x="710" y="840.0967">STEP 4: physical fit on inferred assets</text><polygon fill="#181818" points="453.5,875.3047,463.5,879.3047,453.5,883.3047,457.5,879.3047" style="stroke:#181818;stroke-width:1.0;"/><line style="stroke:#181818;stroke-width:1.0;" x1="178.5" x2="459.5" y1="879.3047" y2="879.3047"/><text fill="#000000" font-family="sans-serif" font-size="13" lengthAdjust="spacing" textLength="260" x="185.5" y="874.4482">update_sample_cumulants(asset log-returns)</text><polygon fill="#181818" points="640.5,905.6563,650.5,909.6563,640.5,913.6563,644.5,909.6563" style="stroke:#181818;stroke-width:1.0;"/><line style="stroke:#181818;stroke-width:1.0;" x1="178.5" x2="646.5" y1="909.6563" y2="909.6563"/><text fill="#000000" font-family="sans-serif" font-size="13" lengthAdjust="spacing" textLength="203" x="185.5" y="904.7998">estimate_parameters(last physical)</text><polygon fill="#181818" points="476.5,936.0078,466.5,940.0078,476.5,944.0078,472.5,940.0078" style="stroke:#181818;stroke-width:1.0;"/><line style="stroke:#181818;stroke-width:1.0;" x1="470.5" x2="651.5" y1="940.0078" y2="940.0078"/><text fill="#000000" font-family="sans-serif" font-size="13" lengthAdjust="spacing" textLength="140" x="482.5" y="935.1514">residual_vector/objective</text><polygon fill="#181818" points="1580,966.3594,1590,970.3594,1580,974.3594,1584,970.3594" style="stroke:#181818;stroke-width:1.0;"/><line style="stroke:#181818;stroke-width:1.0;" x1="465.5" x2="1586" y1="970.3594" y2="970.3594"/><text fill="#000000" font-family="sans-serif" font-size="13" lengthAdjust="spacing" textLength="181" x="472.5" y="965.5029">theoretical_cumulants_update()</text><polygon fill="#181818" points="1580,996.7109,1590,1000.7109,1580,1004.7109,1584,1000.7109" style="stroke:#181818;stroke-width:1.0;"/><line style="stroke:#181818;stroke-width:1.0;" x1="178.5" x2="1586" y1="1000.7109" y2="1000.7109"/><text fill="#000000" font-family="sans-serif" font-size="13" lengthAdjust="spacing" textLength="187" x="185.5" y="995.8545">parameters_convention_update()</text><rect fill="#EEEEEE" height="3" style="stroke:#EEEEEE;stroke-width:1.0;" width="1663" x="0" y="1029.8867"/><line style="stroke:#000000;stroke-width:1.0;" x1="0" x2="1663" y1="1029.8867" y2="1029.8867"/><line style="stroke:#000000;stroke-width:1.0;" x1="0" x2="1663" y1="1032.8867" y2="1032.8867"/><rect fill="#EEEEEE" height="24.3516" style="stroke:#000000;stroke-width:2.0;" width="102" x="780.5" y="1018.7109"/><text fill="#000000" font-family="sans-serif" font-size="13" font-weight="bold" lengthAdjust="spacing" textLength="84" x="786.5" y="1036.2061">Convergence</text><polygon fill="#181818" points="1580,1087.7656,1590,1091.7656,1580,1095.7656,1584,1091.7656" style="stroke:#181818;stroke-width:1.0;"/><line style="stroke:#181818;stroke-width:1.0;" x1="178.5" x2="1586" y1="1091.7656" y2="1091.7656"/><text fill="#000000" font-family="sans-serif" font-size="13" lengthAdjust="spacing" textLength="132" x="185.5" y="1070.5576">cdf(risk_neutral=False)</text><text fill="#000000" font-family="sans-serif" font-size="13" lengthAdjust="spacing" textLength="68" x="185.5" y="1086.9092">(Gil-Pelaez)</text><polygon fill="#181818" points="33.5,1118.1172,23.5,1122.1172,33.5,1126.1172,29.5,1122.1172" style="stroke:#181818;stroke-width:1.0;"/><line style="stroke:#181818;stroke-width:1.0;stroke-dasharray:2.0,2.0;" x1="27.5" x2="177.5" y1="1122.1172" y2="1122.1172"/><text fill="#000000" font-family="sans-serif" font-size="13" lengthAdjust="spacing" textLength="132" x="39.5" y="1117.2607">distance-to-default, PD</text><!--SRC=[hLLDRzim3BthL_3eO3NMTkibG0PiNJeCMx40oMu31DLc7AsAf4boklJNZxAT-2DkCQmxMH3v7ib7KWuoA8Ivzza67TnYs9WSKhWMIjuv4QJHSAFC0sF-NcehdDY2aXh3tY8OHzuTmqAu83DfXGuBaUTI5t1vrR5_CByFznTNZ8ai60VVFJfcM-GnjEbVtvejwd0hGaoqPrb4SWpeljaWj_9nO6vgMngr6rZUUu_XirwZGvtXN1TKs9W3uS80-XKVf9-NpbWKUYLSWM7XP8R3d7DKZCKI8NtNgGocaBKA9nF6PZDOhkOBk9Y2tUoz93EiPG3I7t-LCkp1OIYTzZ2RiGuHqVQK8URIvY8Wzs9h5VAit9QAal59mwDCaJPSam7JgP94XvxEaT0Uh3wHMWOf52zAzCGoWXl9ozpzn2p87RA-fN8beSWbRD1GRh7wDd5U5vICnndgUbIlIjUVQ5K7QclXcQ46wzY7Dj2n7PVJusu49xHV6xSzxK1ln8ZTnqDYUIFJXFKTEdbWRU2M-o0SlpEbpdto3E2W2YzGOnmVNV1rgRDgZkpa3BuazjN59ANF2Sk9L5NG9nHoqjzpZIMLhJgjFsXKOpjAlPc2ZAi48YvDDQRA60ka6A38Df2BFGFe1nlRG6Y8U4N4TqBHa2M49ZbpMZ6QDnW7jeJrnbPCyPY4QaERJUhW6py2FhdGKQTuu0wzp4kXakLvP7WQqEtMPfrqXPojN8aZyP-HWfPOObwh2ijpXZflHNzx-bfKsha3uWNFHHtnVxmMIlXmpFDlNuk3t7o7yJ_n-kMlnp-_1DVndXfCVHcJisbrFcZrZL0U9pzqyacgT85Au6C_1m9NVuOfv9AMYTZJOD8Srw9KuGmM7zaV]--></g></svg>